<?xml version="1.0" encoding="UTF-8"?>
<!-- Generator: visioncortex VTracer 0.6.12 -->
<svg version="1.1" xmlns="http://www.w3.org/2000/svg" viewBox="0 0 2000 2000" width="2000" height="2000">
<path d="M0 0 C0.37429 -0.00134 0.37429 -0.00134 2.26843 -0.00812 C4.36 -0.01386 6.4514 -0.01232 8.54297 -0.00781 C9.13799 -0.00725 9.13799 -0.00725 12.14917 -0.00439 C14.8125 0.125 14.8125 0.125 15.8125 1.125 C15.91135 3.21425 15.93806 5.30691 15.93834 7.3985 C15.93979 8.06457 15.94125 8.73065 15.94275 9.4169 C15.94643 11.67672 15.94291 13.93647 15.93948 16.19629 C15.94063 17.82161 15.94222 19.44693 15.94421 21.07225 C15.94841 25.56029 15.94631 30.04831 15.94322 34.53634 C15.94097 39.36802 15.94445 44.1997 15.9472 49.03137 C15.95166 58.50523 15.95069 67.97907 15.94779 77.45293 C15.94554 85.14884 15.94523 92.84474 15.94632 100.54065 C15.94639 101.08718 15.94639 101.08718 15.94678 103.85298 C15.9471 106.07315 15.94742 108.29332 15.94775 110.51349 C15.95061 131.35852 15.94732 152.20354 15.94195 173.04857 C15.93748 190.95556 15.93826 208.86254 15.94287 226.76953 C15.94822 247.53722 15.95033 268.30491 15.94726 289.0726 C15.94694 291.28485 15.94663 293.4971 15.94632 295.70935 C15.94616 296.79797 15.94601 297.8866 15.94585 299.00821 C15.94498 306.69969 15.94645 314.39116 15.9488 322.08264 C15.95159 331.44907 15.95086 340.81548 15.94551 350.18191 C15.94288 354.96572 15.94187 359.74953 15.94516 364.53334 C15.94812 368.9053 15.94654 373.27722 15.94119 377.64918 C15.94006 379.23798 15.94065 380.82679 15.94306 382.41559 C15.94607 384.56093 15.94302 386.70617 15.93834 388.8515 C15.93818 390.04746 15.93802 391.24341 15.93785 392.47561 C15.8125 395.125 15.8125 395.125 14.8125 396.125 C13.17073 396.27383 11.52265 396.35314 9.875 396.40625 C8.77897 396.44291 7.68295 396.47957 6.55371 396.51733 C5.31911 396.55286 4.08451 396.58839 2.8125 396.625 C2.15524 396.64567 2.15524 396.64567 -1.1709 396.75024 C-11.53921 397.06575 -21.90928 397.25905 -32.28052 397.44873 C-59.60285 397.95045 -86.89073 398.83893 -114.1875 400.125 C-115.21132 400.17249 -116.23514 400.21999 -117.28998 400.26892 C-214.31028 404.79486 -311.38129 416.12606 -536.1875 470.125 C-536.97349 470.3751 -537.75947 470.6252 -538.56927 470.88287 C-573.41075 481.97912 -609.41607 493.73928 -642.1875 510.125 C-642.5175 689.975 -642.8475 869.825 -643.1875 1055.125 C-773.8675 1055.125 -904.5475 1055.125 -1039.1875 1055.125 C-1040.36203 1022.23816 -1040.36203 1022.23816 -1039.9375 1008.9375 C-1039.9145 1008.14705 -1039.8915 1007.35661 -1039.8678 1006.54221 C-1037.02512 910.4843 -1023.28259 814.92652 -972.86731 635.09735 C-972.22424 633.23159 -971.58609 631.36413 -970.94824 629.49658 C-950.67068 570.29048 -925.22065 510.85596 -892.55127 457.396 C-890.8908 454.63093 -889.33886 451.81604 -887.79663 448.98389 C-882.65901 439.55234 -876.74807 430.65108 -870.83594 421.69141 C-867.76486 417.03089 -864.79581 412.3181 -861.875 407.5625 C-857.72096 400.84118 -853.24217 394.41305 -848.57959 388.03662 C-847.04871 385.93442 -845.53322 383.82164 -844.01953 381.70703 C-837.57284 372.71152 -831.00983 363.83941 -824.1875 355.125 C-823.27209 353.95055 -822.35673 352.77607 -821.44141 351.60156 C-809.86037 336.77172 -797.93856 322.2337 -785.11938 308.45337 C-782.18655 305.27935 -779.43961 302.00636 -776.75 298.625 C-772.94591 293.89208 -768.82581 289.64607 -764.49731 285.40332 C-761.09421 282.06195 -757.92135 278.61035 -754.82422 274.98828 C-750.01951 269.51848 -744.70104 264.64445 -739.1875 259.90625 C-737.10413 258.05075 -735.14469 256.11277 -733.1875 254.125 C-730.05904 250.9541 -726.81895 247.9993 -723.44141 245.09766 C-721.22818 243.1606 -719.06602 241.17459 -716.9104 239.17383 C-711.83797 234.47 -706.66892 229.96066 -701.27734 225.62109 C-698.94139 223.73402 -696.62381 221.83159 -694.31641 219.91016 C-679.46402 207.55281 -664.13709 195.93192 -648.41064 184.71143 C-646.94407 183.66489 -645.47887 182.61642 -644.01514 181.56592 C-634.30652 174.59897 -624.45417 167.9214 -614.36768 161.51367 C-612.17529 160.11723 -609.99156 158.70799 -607.80859 157.29688 C-534.32033 110.0288 -452.57364 74.94324 -353.1875 46.125 C-352.46303 45.92562 -351.73855 45.72624 -350.99213 45.52081 C-278.28426 25.54991 -204.21143 13.28771 -129.1875 6.125 C-128.27786 6.03777 -127.36823 5.95053 -126.43103 5.86066 C-84.41169 1.85254 -42.20463 0.08645 0 0 Z " fill="#06A8C4" transform="translate(1841.1875,735.875)"/>
<path d="M0 0 C130.68 0 261.36 0 396 0 C396 78.16341 396 78.16341 393 114 C392.95757 114.50815 392.95757 114.50815 392.74286 117.07971 C385.28035 205.33036 368.62402 292.09281 343.58734 377.0069 C343.03091 378.8951 342.47753 380.78419 341.92432 382.67334 C329.11297 426.1493 312.75547 468.75249 294 510 C293.50226 511.09699 293.00452 512.19398 292.4917 513.32422 C286.89507 525.62943 281.19997 537.86622 275.05566 549.90771 C273.85896 552.27953 272.69028 554.66413 271.52344 557.05078 C264.84477 570.66494 257.61036 583.8859 250 597 C249.46617 597.92313 248.93233 598.84626 248.38232 599.79736 C224.18561 641.54351 196.98409 682.19385 165.61328 718.92188 C163.22118 721.72707 160.88544 724.57463 158.5625 727.4375 C150.40245 737.44154 141.9685 747.17077 133.15796 756.60645 C131.18451 758.72216 129.22143 760.84634 127.27246 762.98462 C120.36358 770.55446 113.25836 777.8985 105.99854 785.13184 C104.23351 786.89143 102.47399 788.6564 100.71484 790.42188 C94.9763 796.16384 89.18098 801.73135 83 807 C80.98339 808.81593 78.99334 810.65832 77 812.5 C72.39285 816.73838 67.75199 820.92442 63 825 C62.04738 825.81984 61.09477 826.63969 60.11328 827.48438 C52.87106 833.68483 45.47005 839.64803 37.93799 845.4917 C35.86797 847.10276 33.80665 848.72451 31.74609 850.34766 C18.62746 860.65649 5.28797 870.66844 -8.67578 879.8125 C-11.27233 881.52116 -13.84853 883.25133 -16.41797 885 C-46.04095 905.08868 -77.13525 922.72942 -109 939 C-110.02174 939.52449 -111.04349 940.04897 -112.09619 940.58936 C-128.48216 948.98278 -145.07328 956.75953 -162 964 C-162.63188 964.27092 -163.26376 964.54185 -163.91479 964.82098 C-238.27439 996.66786 -316.51558 1018.64257 -571 1053 C-571.38929 1053.02373 -571.38929 1053.02373 -573.35934 1053.14383 C-583.54445 1053.75726 -593.72625 1054.22234 -603.92603 1054.50269 C-606.01142 1054.56107 -608.09648 1054.62699 -610.18164 1054.69336 C-626.1326 1055.14419 -642.0215 1055 -658 1055 C-658 924.32 -658 793.64 -658 659 C-641.20824 658.44027 -624.45123 657.88884 -607.65875 657.61212 C-581.42075 657.16452 -555.21161 656.24761 -529 655 C-527.99314 654.95251 -526.98628 654.90501 -525.94891 654.85608 C-447.92209 651.14059 -370.11179 642.88156 -283 628 C-282.52526 627.91771 -282.52526 627.91771 -280.1228 627.50128 C-221.59166 617.31481 -163.58761 603.065 -107 585 C-106.19796 584.74412 -105.39592 584.48824 -104.56958 584.22461 C-69.34723 572.95805 -34.79947 560.02199 -1 545 C-0.835 455.075 -0.835 455.075 0 0 Z " fill="#06A8C4" transform="translate(802,209)"/>
<path d="M0 0 C0 179.19 0 358.38 0 543 C-130.35 543 -260.7 543 -395 543 C-395 511.78643 -395 511.78643 -394.25 498.625 C-394.20643 497.8464 -394.16287 497.06779 -394.11798 496.26559 C-389.56261 417.06674 -361.95926 338.0334 -322 270 C-321.74807 269.56647 -321.74807 269.56647 -320.47314 267.37256 C-313.19307 254.85689 -305.35807 242.82101 -297 231 C-296.45167 230.2235 -295.90333 229.447 -295.33838 228.64697 C-285.04177 214.11681 -274.20005 200.21146 -262.5249 186.76758 C-260.97886 184.97549 -259.45019 183.16989 -257.92578 181.35938 C-252.59608 175.04364 -247.15883 169.01329 -241.23828 163.23438 C-239.18273 161.18242 -237.26617 159.0778 -235.375 156.875 C-230.01938 150.64141 -224.15969 145.0671 -217.93359 139.71484 C-216.04505 138.03996 -214.26844 136.30052 -212.5 134.5 C-208.83703 130.78787 -204.95765 127.39319 -201 124 C-199.95669 123.09284 -198.91375 122.18526 -197.87109 121.27734 C-190.38833 114.7839 -182.74955 108.54819 -174.91309 102.48779 C-172.87256 100.90089 -170.84582 99.29744 -168.82031 97.69141 C-157.84179 89.01651 -146.55514 80.88748 -135 73 C-134.18225 72.43845 -133.3645 71.8769 -132.52197 71.29834 C-94.18736 45.0375 -53.16102 22.47124 -11 3 C-10.32099 2.68063 -9.64197 2.36127 -8.94238 2.03223 C-5.63285 0.52757 -3.7271 0 0 0 Z " fill="#1F2B5B" transform="translate(1197,1247)"/>
<path d="M0 0 C130.35 0 260.7 0 395 0 C395 27.99195 395 27.99195 394.3125 40.25 C394.27154 40.99649 394.23058 41.74298 394.18839 42.51208 C392.74104 67.93286 388.88839 93.23206 383 118 C382.73381 119.13164 382.46762 120.26327 382.19336 121.4292 C372.62875 161.54984 358.72154 199.75974 341 237 C340.59459 237.8561 340.18918 238.7122 339.77148 239.59424 C324.88537 270.82219 306.0281 300.54971 285 328 C284.2098 329.04672 283.41961 330.09344 282.60547 331.17188 C277.48502 337.9305 272.14971 344.46029 266.63281 350.89844 C264.29496 353.63293 262.05068 356.43313 259.8125 359.25 C249.2555 372.15095 237.25951 383.83365 225.5 395.625 C224.93983 396.18785 224.37966 396.75069 223.80252 397.3306 C217.71484 403.44037 211.57354 409.40829 205 415 C203.39232 416.45446 201.7876 417.91221 200.1875 419.375 C195.45669 423.63919 190.58089 427.68846 185.62354 431.68555 C183.79871 433.16297 181.98307 434.65127 180.16797 436.14062 C172.25188 442.62642 164.26334 448.95832 156 455 C155.38028 455.45778 154.76057 455.91556 154.12207 456.38721 C111.24046 488.04582 64.74915 514.90831 16.4375 537.375 C15.24794 537.92873 14.05837 538.48247 12.83276 539.05298 C4.53 542.8675 4.53 542.8675 0 544 C0 364.48 0 184.96 0 0 Z " fill="#1E2B5B" transform="translate(803,210)"/>
<path d="M0 0 C0.66 0.33 1.32 0.66 2 1 C-12.19 15.19 -26.38 29.38 -41 44 C-41.66 43.67 -42.32 43.34 -43 43 C-42.60748 42.61328 -42.60748 42.61328 -40.62109 40.65625 C-35.44381 35.53176 -30.37357 30.40299 -25.63672 24.86328 C-20.84137 19.40414 -15.53481 14.53685 -10.03125 9.80859 C-6.53429 6.69495 -3.27032 3.3486 0 0 Z " fill="#59CCE0" transform="translate(1112,986)"/>
<path d="M0 0 C0.33 0 0.66 0 1 0 C1.20639 43.42118 1.20639 43.42118 0 61 C-0.33 61 -0.66 61 -1 61 C-2.46686 40.53348 -1.4013 20.42941 0 0 Z " fill="#5DC3DA" transform="translate(1197,233)"/>
</svg>
